<?xml version="1.0" encoding="UTF-8" standalone="no"?>
<!-- Created with Inkscape (http://www.inkscape.org/) -->

<svg
   width="210mm"
   height="297mm"
   viewBox="0 0 210 297"
   version="1.1"
   id="svg1"
   inkscape:version="1.3 (0e150ed6c4, 2023-07-21)"
   sodipodi:docname="KELP.svg"
   xmlns:inkscape="http://www.inkscape.org/namespaces/inkscape"
   xmlns:sodipodi="http://sodipodi.sourceforge.net/DTD/sodipodi-0.dtd"
   xmlns:xlink="http://www.w3.org/1999/xlink"
   xmlns="http://www.w3.org/2000/svg"
   xmlns:svg="http://www.w3.org/2000/svg">
  <sodipodi:namedview
     id="namedview1"
     pagecolor="#ffffff"
     bordercolor="#000000"
     borderopacity="0.25"
     inkscape:showpageshadow="2"
     inkscape:pageopacity="0.0"
     inkscape:pagecheckerboard="0"
     inkscape:deskcolor="#d1d1d1"
     inkscape:document-units="mm"
     inkscape:zoom="0.74394518"
     inkscape:cx="274.88585"
     inkscape:cy="425.43457"
     inkscape:window-width="2560"
     inkscape:window-height="1377"
     inkscape:window-x="2552"
     inkscape:window-y="-8"
     inkscape:window-maximized="1"
     inkscape:current-layer="layer1" />
  <defs
     id="defs1">
    <linearGradient
       id="linearGradient1"
       inkscape:collect="always">
      <stop
         style="stop-color:#000000;stop-opacity:1;"
         offset="0"
         id="stop1" />
      <stop
         style="stop-color:#21470c;stop-opacity:1;"
         offset="0.29353234"
         id="stop3" />
      <stop
         style="stop-color:#46951a;stop-opacity:1;"
         offset="1"
         id="stop2" />
    </linearGradient>
    <linearGradient
       inkscape:collect="always"
       xlink:href="#linearGradient1"
       id="linearGradient2"
       x1="85.718796"
       y1="249.77901"
       x2="86.418991"
       y2="55.823662"
       gradientUnits="userSpaceOnUse" />
  </defs>
  <g
     inkscape:label="Warstwa 1"
     inkscape:groupmode="layer"
     id="layer1">
    <path
       style="display:inline;opacity:1;fill:url(#linearGradient2);stroke:none;stroke-width:1;stroke-dasharray:none;stroke-opacity:1"
       d="m 85.328339,249.9729 c -2.652801,-0.0185 -3.091282,-1.70519 -2.905182,-3.01778 0.141054,-0.99488 1.294348,-4.04769 1.204587,-5.0925 -0.131687,-1.53283 -1.203486,-9.13505 -2.775835,-15.64277 l -1.213103,-0.52229 c 0,0 -4.874461,2.52035 -9.291956,0.92374 -1.635669,-0.59118 -7.284415,-1.08263 -10.926588,-4.73461 -2.249721,-2.25578 -4.042273,-9.1041 -4.042273,-9.1041 0,0 2.754509,5.84613 5.702646,6.92786 2.35692,0.8648 8.857122,-1.65925 11.14094,-0.6166 2.887684,1.31835 7.05436,5.13606 7.05436,5.13606 l 1.175974,0.075 c -1.119868,-4.54485 -1.37267,-7.64459 -1.822625,-11.07292 l -0.887156,-0.23549 c 0,0 -3.510204,3.27304 -18.758517,-0.50221 -5.251512,-1.30019 -7.748541,-7.36235 -8.963569,-10.36674 -0.854494,-2.11291 -0.59667,-3.52501 -0.59667,-3.52501 -1.153401,-2.24395 -3.943787,-3.28748 -3.943787,-3.28748 0,0 1.777304,-0.41669 2.805803,0.40244 0,0 2.336944,-0.32514 4.731746,2.34221 3.541178,3.9442 3.189104,6.85199 14.168009,7.37857 3.944273,0.18918 10.59101,6.76771 10.59101,6.76771 l 0.704057,0.40842 c -0.958579,-4.46225 -0.995553,-8.67448 -1.035257,-11.01133 l -0.970292,-0.35871 c 0,0 -3.251252,-0.14871 -5.685576,-0.73591 -2.579611,-0.62225 -3.064792,-1.71017 -4.93113,-3.59654 -2.340207,-2.36531 -3.422239,-9.63209 -3.422239,-9.63209 0,0 3.1412,6.19578 6.98282,7.02858 1.944206,0.42147 3.867507,2.90669 5.59967,3.88505 1.72235,0.97281 1.481655,2.06182 1.481655,2.06182 l 0.978692,0.23856 c -0.311263,-3.70573 0.171111,-13.61958 0.202387,-13.45538 l -0.915185,-0.19378 c -5.710942,-1.46612 -6.005122,0.25344 -8.467363,-2.01739 -5.104319,-4.70752 -5.413253,-1.79722 -7.033765,-3.58325 -3.811078,-4.20032 -1.587218,-4.44932 -4.561671,-9.2157 -3.223373,-5.16525 1.599634,-14.4968 1.599634,-14.4968 0,0 -0.693929,11.43504 5.151813,14.01494 4.01371,1.77136 5.043026,1.75948 8.295335,6.91057 1.704427,2.69952 5.088941,7.44498 5.088941,7.44498 l 1.065232,-0.16234 c 0,0 0.674185,-5.54455 0.942007,-6.8073 0,0 -1.05233,-2.8363 -2.192168,-3.71077 -1.395788,-1.07084 -5.084209,-1.41601 -5.084209,-1.41601 0,0 3.002817,-2.56141 4.723581,-2.26475 1.615268,0.27847 3.466171,3.48789 3.466171,3.48789 0.44278,-1.82678 1.251304,-4.54049 1.598954,-5.83021 0.03939,-0.14613 -0.460259,-0.96366 -0.460259,-0.96366 0,0 -5.879523,-2.99402 -7.783501,-5.26632 -1.382897,-1.65041 -1.243387,-6.92978 0.182784,-10.15061 1.163283,-2.62714 -0.957068,-11.97972 -0.957068,-11.97972 0,0 5.946219,4.66992 6.747763,10.27711 0.388875,2.72037 -0.714428,6.42428 -0.902201,9.16588 -0.135593,1.97974 3.206963,7.35624 3.206963,7.35624 0,0 0.269489,0.60998 0.316659,0.45262 0.455281,-1.51885 0.927377,-3.05065 1.347552,-4.46884 1.536885,-5.18735 3.755931,-10.54132 5.155215,-17.8592 l -0.778776,-1.68306 c 0,0 -3.999351,1.43519 -4.623417,-0.54846 -1.888035,-6.0013 -4.760296,-5.24264 -6.323018,-6.81864 -2.175962,-2.19446 -2.686761,-4.42075 -2.057372,-8.47948 0.617007,-3.97888 4.829874,-10.54316 4.829874,-10.54316 0,0 -3.176389,8.8139 -0.391784,11.18758 0.949724,0.80957 2.238317,5.29608 2.809671,6.42793 0.571353,1.13184 4.54348,2.24115 5.139057,3.33781 1.660234,3.05707 0.967875,4.36266 0.967875,4.36266 l 0.955013,0.67312 c 1.187227,-7.04355 1.624032,-11.96881 1.624032,-11.96881 l -0.604082,-0.58385 c 0,0 -3.328715,-0.89618 -4.816402,-1.73124 -1.122888,-0.6303 -2.046544,-1.56721 -3.008876,-2.42282 -0.929138,-0.8261 -2.929826,-1.36666 -2.929826,-1.36666 0,0 4.209907,-0.73089 6.07544,-0.084 1.036014,0.35926 2.166359,0.70626 2.932381,1.49087 0.82716,0.84722 1.533514,3.20409 1.533514,3.20409 l 0.873373,0.67355 c 0.02927,-1.84422 -0.04022,-3.46162 -0.188251,-5.2482 -2.944689,-0.74515 -4.412769,-3.49863 -4.938325,-4.18745 3.1882,1.74633 2.974385,2.37912 4.787865,2.41943 -0.350827,-3.22264 -0.942831,-6.33865 -1.653554,-9.32312 l -0.634899,-0.1851 c -3.213558,-0.18903 -5.688972,1.72938 -7.471756,1.49653 -2.937534,-0.38368 -6.722565,-1.55018 -8.44412,-3.9611 -1.288702,-1.80475 2.728731,-4.60543 1.602775,-6.51595 -1.364175,-2.31472 -4.042845,-3.21058 -4.042845,-3.21058 0,0 5.575929,-0.67126 7.781877,2.15944 1.261048,1.61819 -0.507041,4.1173 0.798453,5.69986 1.614465,1.9571 4.535125,0.68771 6.043142,1.9632 0.968028,0.81877 3.475264,1.36803 3.475264,1.36803 l 0.591075,-0.0436 c -1.072342,-4.26463 -2.357775,-8.24668 -3.485445,-11.87063 l -1.297723,-0.57148 c 0,0 -5.356075,-0.35531 -7.788317,-1.371685 -2.417735,-1.010314 -4.847407,-2.446985 -6.410177,-4.550298 -1.224834,-1.648488 -1.964565,-5.839526 -1.964565,-5.839526 0,0 4.436768,3.630133 7.015572,4.807716 1.871415,0.854561 4.286757,0.38077 5.970852,1.562418 1.482369,1.040106 3.081205,4.474294 3.081205,4.474294 l 0.969539,0.117591 c -1.309638,-4.276857 -2.318375,-8.014285 -2.367349,-11.078127 -0.17834,-0.09774 -0.560239,-0.450598 -0.560239,-0.450598 0,0 -2.226181,-2.070694 -3.556109,-2.769882 -1.361803,-0.715945 -3.23644,-0.386053 -4.400774,-1.391743 -1.46257,-1.26329 -1.084027,-3.936806 -2.533617,-5.214968 -1.361258,-1.200276 -5.156529,-1.747392 -5.156529,-1.747392 0,0 5.56187,-1.139572 7.939692,0.02246 1.632137,0.797618 1.804032,3.353862 3.360711,4.290247 0.975147,0.586577 2.512536,-0.158281 3.360711,0.600389 1.111707,0.994391 1.271274,4.290246 1.271274,4.290246 l 0.39408,0.0019 c 0.240982,-2.090832 0.15198,-1.641234 0.647522,-3.680917 0.248741,-1.023833 -1.683348,-4.693531 -1.592749,-5.692208 0.165027,-1.819096 2.477759,-3.952086 2.918151,-6.179586 0.270461,-1.367992 0.05001,-2.395168 0.0094,-5.460933 -0.02733,-2.065013 3.121775,-4.80464 4.182625,-7.946996 -0.534399,3.043023 0.129194,8.469674 -0.191742,9.823807 -0.649767,2.741583 -1.224024,4.365584 -1.36676,5.225479 -0.264577,1.593911 0.288777,2.964763 -0.102622,4.772832 -0.196513,0.907788 -3.079022,4.617421 -3.230438,5.585272 -0.176691,1.129415 -0.326148,1.840722 -0.31349,2.732585 1.358744,-1.030914 2.796988,-0.765524 4.342406,-1.632578 1.890231,-1.060512 2.051236,-2.885496 4.608486,-5.27292 -1.530922,4.029052 -4.091008,11.04502 -8.67944,10.317749 0.09356,1.508388 0.401458,2.243784 0.816552,4.036581 l 0.916464,-0.259472 c 0,0 0.169552,-1.206562 0.570676,-1.611188 1.193669,-1.204092 2.539365,-0.332037 4.6274,-2.137033 0.422445,-0.365182 5.029766,-2.746328 6.53046,-2.331468 0,0 -2.369494,0.969329 -3.441704,2.747027 -0.869031,1.440833 -2.261475,2.640191 -3.79882,3.324142 -1.357914,0.604125 -4.427524,0.526408 -4.427524,0.526408 l -0.686733,0.935066 c 0.361855,1.424562 0.792683,2.918137 1.26364,4.463806 2.526167,-1.815602 5.052335,-0.962988 7.578502,-1.056695 -2.659034,1.295114 -5.235902,2.654788 -6.267384,5.228688 0.61591,1.92671 1.252724,3.90589 1.862274,5.90927 l 1.438825,-0.90874 c 0,0 2.407536,-5.13699 4.70635,-6.51021 2.070883,-1.23706 4.850636,-0.30324 7.173659,-0.95319 1.84463,-0.5161 2.99479,0.0471 2.99479,0.0471 0,0 -1.15647,-0.30375 -2.62891,1.02511 -1.57772,1.42387 -2.3403,3.71866 -4.140415,4.84833 -2.20146,1.38152 -7.541312,1.9809 -7.541312,1.9809 l -1.673104,1.66972 c 1.179893,4.01026 2.248139,8.20789 2.873506,12.48387 l 0.511887,-0.29712 c 0,0 0.413236,-4.14671 1.324035,-5.98679 0.784334,-1.58458 2.283206,-3.12797 3.639255,-4.26253 1.693506,-1.41689 4.512848,-1.03774 6.107338,-2.56522 1.74435,-1.67103 3.12189,-6.14613 3.12189,-6.14613 0,0 0.95362,6.31801 -2.24782,10.80617 -0.93153,1.30592 -3.04476,1.32471 -4.08245,2.54798 -1.276711,1.50504 -0.727731,2.85705 -2.273906,4.08363 -1.419493,1.12609 -5.362209,2.27422 -5.362209,2.27422 l -0.599516,0.592 c 0.440212,3.57553 0.553157,7.221 0.149866,10.8855 l 0.335255,-0.0719 c 0,0 1.157493,-3.53742 2.487563,-4.71646 1.59954,-1.41791 3.855593,-2.17229 5.989877,-2.28957 1.88805,-0.10374 4.92295,2.94155 4.92295,2.94155 0,0 -2.68173,-0.79063 -4.59381,0.1955 -1.393061,0.71846 -3.342737,2.68972 -4.786881,3.29905 -1.26276,0.53279 -3.975353,1.04997 -3.975353,1.04997 l -0.453841,0.26154 c -0.266883,2.38635 -0.729552,6.26637 -1.447878,10.34568 l 0.722744,-0.13054 c 0,0 2.551367,-4.97423 4.746023,-6.53222 1.675186,-1.18921 4.054806,-0.87605 5.901866,-1.77542 3.85087,-1.87505 5.92411,-5.50973 5.92411,-5.50973 0,0 -1.07416,4.71661 -2.30027,7.29363 -1.27146,2.67232 -2.70748,1.42817 -7.145975,5.91549 -1.691009,1.7096 -7.012621,1.69217 -7.012621,1.69217 l -1.099957,0.49184 c -0.601398,3.17052 -1.359254,6.36908 -2.301085,9.00077 0.302473,-0.27909 1.456386,-0.72847 3.012482,-1.25828 0,0 1.332549,-4.53045 3.295399,-5.21913 2.665144,-0.93508 6.120297,0.72709 7.887577,0.43965 2.27337,-0.36975 -1.17089,-3.21598 -0.41131,-4.52711 2.35543,-4.06578 10.46263,-2.89293 10.46263,-2.89293 0,0 -6.358,1.67718 -6.44952,4.90302 -0.0447,1.5746 3.78158,1.9003 1.63198,3.50459 -5.86921,4.38029 -11.570794,5.26496 -11.570794,5.26496 -2.428492,0.45715 -4.689148,-0.75532 -4.689148,-0.75532 -2.499487,0.75963 -2.483791,1.36207 -3.714656,2.04241 -0.820886,1.38919 -1.720628,3.42165 -2.02938,5.32297 1.12002,-0.51141 2.017759,-0.20153 3.849077,-2.3548 -0.34685,2.39794 -1.832762,4.18894 -5.057257,5.92032 -1.438299,4.4748 -1.048896,4.55594 -2.026459,8.98391 l 0.86735,0.37348 c 0,0 3.651096,-2.44502 4.870477,-4.21117 1.554941,-2.25218 3.377306,-4.98866 5.145427,-6.65568 1.184853,-1.11711 5.884621,-0.3935 7.903003,-0.11301 2.50082,0.34753 7.63228,5.66485 7.63228,5.66485 -4.45689,-0.69803 -7.26525,-1.65876 -11.159763,-0.34267 -2.741732,0.92652 -5.008819,6.45384 -7.980488,7.8846 -2.002104,0.96394 -6.563795,-1.16407 -6.563795,-1.16407 l -1.066491,0.12898 c -0.513578,2.43053 -1.560421,5.30591 -2.015398,10.71685 l 0.941457,-0.28299 c 0,0 1.555975,-4.09195 3.316587,-5.09575 1.545877,-0.88137 3.662469,0.38444 5.333611,-0.22698 2.859963,-1.04637 7.223333,-5.59392 7.223333,-5.59392 0,0 -1.837311,6.56234 -4.276632,8.6664 -1.924084,1.65963 -4.79199,1.71667 -7.256977,2.33337 -1.388061,0.34727 -4.223781,0.76516 -4.223781,0.76516 l -1.070398,1.19446 c -0.01895,1.93011 -0.07152,4.17097 0.1533,8.54159 l 1.525952,-0.0206 c 0,0 2.723231,-3.16284 4.771024,-3.68499 2.755191,-0.70252 4.728753,2.13078 6.642003,1.78692 3.442228,-0.61865 3.748464,-2.15569 7.820826,-0.71083 4.3504,1.5435 10.21978,-6.42569 10.21978,-6.42569 0,0 -2.85062,8.68586 -7.142,11.38911 -3.22354,2.03059 -6.697411,-0.21432 -8.545288,0.1308 -3.717498,0.6943 -5.46946,2.82587 -7.960688,1.7598 -3.139211,-1.34337 -5.541356,-2.90189 -5.541356,-2.90189 l -1.726523,0.70423 c 0.09465,2.62553 -0.341545,6.14656 0.126,9.37251 0,0 1.723463,-1.40776 2.498814,-2.2025 1.114689,-1.14258 3.076745,-3.66956 3.076745,-3.66956 0,0 -0.631201,3.11453 -1.057676,4.64372 -0.601101,2.15535 -3.324937,4.55483 -3.324937,4.55483 0.476577,2.85164 1.865057,8.84974 1.865057,8.84974 l 1.206664,-1.12638 c 0,0 0.707636,-0.58841 1.749763,-1.81815 2.086782,-2.46246 5.370859,-7.09786 9.524349,-6.01637 3.698304,0.96298 7.445266,1.06026 11.067956,0.35243 1.51209,-0.29544 4.22458,-1.87516 4.22458,-1.87516 0,0 -3.20615,3.4719 -4.97436,5.03318 -6.455017,5.69963 -9.377181,2.18899 -13.482114,5.07147 -2.703063,1.89809 -7.577773,-0.007 -7.577773,-0.007 l -1.421573,1.58309 c 0,0 0.599601,2.72779 1.51077,8.07633 1.205711,-3.72122 5.635905,-1.50938 8.705154,-1.80169 -6.617966,1.84734 -6.878158,4.15538 -7.939563,6.40536 0.658257,3.89567 1.039796,6.74709 1.202537,8.28615 0.218282,2.06432 0.82557,6.22007 -1.827231,6.20158 z"
       id="path1"
       sodipodi:nodetypes="zssccsscssccccssscsssccccsscssccccssscsscccscscccsscssccsccssscsssccccsscsscccccccssscsssccccsscssccccssscsssccsssscsssscsccccsscsscccccccsscssccccssscsssccccsscssccccsscssccccssscssscccccccssscssccccsscssccccssscssscccscscccssacsscccccszz" />
  </g>
</svg>
