<?xml version="1.0" encoding="UTF-8" standalone="no"?>
<!-- Created with Inkscape (http://www.inkscape.org/) -->

<svg
   width="210mm"
   height="297mm"
   viewBox="0 0 210 297"
   version="1.1"
   id="svg1"
   xml:space="preserve"
   inkscape:version="1.3 (0e150ed6c4, 2023-07-21)"
   sodipodi:docname="KELP DWA.svg"
   xmlns:inkscape="http://www.inkscape.org/namespaces/inkscape"
   xmlns:sodipodi="http://sodipodi.sourceforge.net/DTD/sodipodi-0.dtd"
   xmlns:xlink="http://www.w3.org/1999/xlink"
   xmlns="http://www.w3.org/2000/svg"
   xmlns:svg="http://www.w3.org/2000/svg"><sodipodi:namedview
     id="namedview1"
     pagecolor="#ffffff"
     bordercolor="#000000"
     borderopacity="0.25"
     inkscape:showpageshadow="2"
     inkscape:pageopacity="0.0"
     inkscape:pagecheckerboard="0"
     inkscape:deskcolor="#d1d1d1"
     inkscape:document-units="mm"
     inkscape:zoom="2.0828684"
     inkscape:cx="304.86803"
     inkscape:cy="486.58858"
     inkscape:window-width="2560"
     inkscape:window-height="1377"
     inkscape:window-x="2552"
     inkscape:window-y="-8"
     inkscape:window-maximized="1"
     inkscape:current-layer="layer1" /><defs
     id="defs1"><linearGradient
       id="linearGradient19"
       inkscape:collect="always"><stop
         style="stop-color:#1d220c;stop-opacity:1;"
         offset="0"
         id="stop19" /><stop
         style="stop-color:#3e4718;stop-opacity:1;"
         offset="0.28801844"
         id="stop44" /><stop
         style="stop-color:#131508;stop-opacity:1;"
         offset="0.45852536"
         id="stop43" /><stop
         style="stop-color:#465319;stop-opacity:1;"
         offset="0.65133542"
         id="stop42" /><stop
         style="stop-color:#1e230c;stop-opacity:1;"
         offset="0.89631337"
         id="stop41" /><stop
         style="stop-color:#44570c;stop-opacity:1;"
         offset="1"
         id="stop20" /></linearGradient><linearGradient
       id="linearGradient17"
       inkscape:collect="always"><stop
         style="stop-color:#121507;stop-opacity:1;"
         offset="0"
         id="stop17" /><stop
         style="stop-color:#2c360b;stop-opacity:1;"
         offset="0.08294931"
         id="stop30" /><stop
         style="stop-color:#0c0c08;stop-opacity:1;"
         offset="0.19665159"
         id="stop31" /><stop
         style="stop-color:#546328;stop-opacity:1;"
         offset="0.45391703"
         id="stop32" /><stop
         style="stop-color:#2c3510;stop-opacity:1;"
         offset="0.5714286"
         id="stop33" /><stop
         style="stop-color:#4d5f1f;stop-opacity:1;"
         offset="0.73271888"
         id="stop34" /><stop
         style="stop-color:#0e1106;stop-opacity:1;"
         offset="0.8894009"
         id="stop35" /><stop
         style="stop-color:#272f0d;stop-opacity:1;"
         offset="1"
         id="stop18" /></linearGradient><linearGradient
       id="linearGradient14"
       inkscape:collect="always"><stop
         style="stop-color:#2b3216;stop-opacity:1;"
         offset="0"
         id="stop15" /><stop
         style="stop-color:#191f0c;stop-opacity:1;"
         offset="0.10931309"
         id="stop40" /><stop
         style="stop-color:#2d3d0d;stop-opacity:1;"
         offset="0.23502304"
         id="stop39" /><stop
         style="stop-color:#191b0b;stop-opacity:1;"
         offset="0.46774194"
         id="stop38" /><stop
         style="stop-color:#373f1d;stop-opacity:1;"
         offset="0.55990785"
         id="stop37" /><stop
         style="stop-color:#11140b;stop-opacity:1;"
         offset="0.84101385"
         id="stop36" /><stop
         style="stop-color:#1d2014;stop-opacity:1;"
         offset="1"
         id="stop16" /></linearGradient><linearGradient
       id="linearGradient3"
       inkscape:collect="always"><stop
         style="stop-color:#0e1106;stop-opacity:1;"
         offset="0"
         id="stop3" /><stop
         style="stop-color:#252e0f;stop-opacity:1;"
         offset="0.09926996"
         id="stop24" /><stop
         style="stop-color:#161a08;stop-opacity:1;"
         offset="0.21545345"
         id="stop23" /><stop
         style="stop-color:#455418;stop-opacity:1;"
         offset="0.28262946"
         id="stop8" /><stop
         style="stop-color:#191c0b;stop-opacity:1;"
         offset="0.37363711"
         id="stop22" /><stop
         style="stop-color:#101009;stop-opacity:1;"
         offset="0.44758567"
         id="stop9" /><stop
         style="stop-color:#1d200c;stop-opacity:1;"
         offset="0.54702991"
         id="stop21" /><stop
         style="stop-color:#394514;stop-opacity:1;"
         offset="0.65635532"
         id="stop5" /><stop
         style="stop-color:#000000;stop-opacity:1;"
         offset="1"
         id="stop4" /></linearGradient><linearGradient
       id="linearGradient1"
       inkscape:collect="always"><stop
         style="stop-color:#1e220f;stop-opacity:1;"
         offset="0"
         id="stop1" /><stop
         style="stop-color:#3f4b10;stop-opacity:1;"
         offset="0.0437788"
         id="stop26" /><stop
         style="stop-color:#485512;stop-opacity:1;"
         offset="0.0921659"
         id="stop28" /><stop
         style="stop-color:#3a460e;stop-opacity:1;"
         offset="0.140553"
         id="stop27" /><stop
         style="stop-color:#2d390c;stop-opacity:1;"
         offset="0.17887788"
         id="stop25" /><stop
         style="stop-color:#0f110a;stop-opacity:1;"
         offset="0.19926009"
         id="stop14" /><stop
         style="stop-color:#232c09;stop-opacity:1;"
         offset="0.24654378"
         id="stop13" /><stop
         style="stop-color:#37450c;stop-opacity:1;"
         offset="0.3274202"
         id="stop12" /><stop
         style="stop-color:#33400c;stop-opacity:1;"
         offset="0.37806252"
         id="stop11" /><stop
         style="stop-color:#0e1103;stop-opacity:1;"
         offset="0.45806506"
         id="stop10" /><stop
         style="stop-color:#36440c;stop-opacity:1;"
         offset="0.56809896"
         id="stop7" /><stop
         style="stop-color:#000000;stop-opacity:1;"
         offset="0.73117948"
         id="stop6" /><stop
         style="stop-color:#28340b;stop-opacity:1;"
         offset="0.92396313"
         id="stop2" /><stop
         style="stop-color:#000000;stop-opacity:1;"
         offset="1"
         id="stop29" /></linearGradient><linearGradient
       inkscape:collect="always"
       xlink:href="#linearGradient1"
       id="linearGradient2"
       x1="96.368797"
       y1="76.1408"
       x2="72.121796"
       y2="186.26018"
       gradientUnits="userSpaceOnUse" /><linearGradient
       inkscape:collect="always"
       xlink:href="#linearGradient3"
       id="linearGradient4"
       x1="66.228317"
       y1="89.538635"
       x2="88.880768"
       y2="187.65715"
       gradientUnits="userSpaceOnUse" /><linearGradient
       inkscape:collect="always"
       xlink:href="#linearGradient14"
       id="linearGradient16"
       x1="134.01491"
       y1="103.59162"
       x2="90.698227"
       y2="188.1925"
       gradientUnits="userSpaceOnUse" /><linearGradient
       inkscape:collect="always"
       xlink:href="#linearGradient17"
       id="linearGradient18"
       x1="92.984749"
       y1="187.93845"
       x2="155.9908"
       y2="90.634727"
       gradientUnits="userSpaceOnUse"
       gradientTransform="rotate(2.1952059,118.6627,135.5269)" /><linearGradient
       inkscape:collect="always"
       xlink:href="#linearGradient19"
       id="linearGradient20"
       x1="94.636116"
       y1="189.46277"
       x2="146.84477"
       y2="142.84337"
       gradientUnits="userSpaceOnUse" /></defs><g
     inkscape:label="Warstwa 1"
     inkscape:groupmode="layer"
     id="layer1"><path
       style="opacity:1;fill:url(#linearGradient2);stroke-width:1"
       d="m 86.956171,187.07135 c 0,0 0.835331,-3.61831 0.355648,-5.33473 -1.500444,-5.36895 -9.60252,-13.69249 -9.60252,-13.69249 0,0 -1.858975,-0.2736 -2.489544,-0.88912 -0.590796,-0.5767 -0.208568,-1.84432 -0.889122,-2.31172 -0.439748,-0.30202 -1.223197,0.37722 -1.600419,0 -0.607746,-0.60775 0.180367,-1.73811 0,-2.57845 -0.136406,-0.63553 -0.885401,-1.13386 -0.800212,-1.77825 0.110412,-0.83519 1.351864,-1.15112 1.60042,-1.95607 0.403749,-1.30755 -0.854487,-2.81565 -0.355648,-4.08996 0.321213,-0.82055 1.736916,-0.92474 1.95607,-1.77824 0.272726,-1.06213 -1.262528,-2.03293 -1.066948,-3.11193 0.116411,-0.64223 1.130796,-0.86884 1.244772,-1.51151 0.202964,-1.14444 -1.240978,-2.13057 -1.155859,-3.28975 0.0466,-0.63464 0.720704,-1.07569 0.889122,-1.68934 0.306317,-1.1161 0.352359,-2.32343 0.177824,-3.46757 -0.219183,-1.43682 -1.641306,-2.64233 -1.511507,-4.08997 0.239674,-2.67306 3.901574,-4.25799 4.089961,-6.93515 0.06529,-0.92787 -1.290813,-1.67564 -1.066945,-2.57846 0.379929,-1.53219 2.955381,-1.60321 3.645403,-3.02301 0.492457,-1.01328 -0.412442,-2.36976 0.08891,-3.37867 0.42225,-0.84973 1.758119,-0.95096 2.222807,-1.77824 0.570696,-1.01601 -0.156391,-2.46917 0.444561,-3.46758 0.318038,-0.52838 1.261302,-0.50327 1.511509,-1.06695 0.399701,-0.90047 -0.718989,-2.01836 -0.35565,-2.9341 0.256104,-0.64547 1.383191,-0.67411 1.600419,-1.33368 0.429483,-1.30405 -1.446252,-2.7104 -0.978035,-4.00105 0.23854,-0.65754 1.411693,-0.60277 1.689333,-1.24478 0.296208,-0.68494 -0.51066,-1.51754 -0.266737,-2.2228 0.178102,-0.51495 1.081401,-0.61609 1.155861,-1.15586 0.190398,-1.380203 -1.860049,-2.264456 -2.044983,-3.645402 -0.09732,-0.726702 0.721967,-1.425349 0.533474,-2.133894 -0.264054,-0.992575 -2.001818,-1.204236 -2.133893,-2.222807 -0.117712,-0.907807 1.44902,-1.492518 1.333682,-2.40063 -0.103013,-0.811069 -1.539977,-0.974418 -1.689333,-1.778244 -0.169922,-0.91451 0.978809,-1.65248 1.066949,-2.578457 0.3211,-3.373412 -4.110792,-7.272013 -2.044981,-9.95817 1.266802,-1.647212 4.234539,-0.956247 6.223855,-0.355648 0.851175,0.25698 1.329624,1.221356 2.133893,1.60042 1.71011,0.806001 4.112283,0.06351 5.51256,1.333682 1.069122,0.969787 0.88241,2.751417 1.422595,4.089964 0.476413,1.180524 1.327328,2.224186 1.600423,3.467579 0.247959,1.128949 -0.321269,2.357263 0,3.467576 0.185118,0.639774 0.731034,1.114227 1.066944,1.689333 0.4414,0.755719 0.61662,1.702314 1.24477,2.311717 0.61835,0.599895 1.7182,0.531393 2.31172,1.155861 2.69716,2.837784 4.71235,10.75838 4.71235,10.75838 0,0 -1.45462,-3.01651 -2.84519,-3.73431 -0.79051,-0.40806 -1.89265,0.34839 -2.66737,-0.0889 -0.61566,-0.34751 -0.575,-1.37525 -1.15586,-1.778241 -0.44901,-0.311515 -1.06943,-0.226428 -1.60042,-0.35565 -1.012817,-0.24648 -3.023014,-0.800208 -3.023014,-0.800208 0,0 1.025739,3.456059 0.355647,4.979089 -0.441775,1.0041 -2.228913,1.00517 -2.578454,2.04498 -0.341278,1.01523 1.067862,2.07485 0.800211,3.11192 -0.18337,0.71051 -1.253566,0.91346 -1.511509,1.60042 -0.271074,0.72193 0.362272,1.59065 0.08891,2.31172 -0.334387,0.88203 -1.636222,1.15758 -1.95607,2.04499 -0.282098,0.78267 0.523126,1.73262 0.177824,2.48954 -0.738054,1.61785 -3.168976,1.80271 -4.267787,3.20084 -0.697359,0.88732 -0.43194,2.43332 -1.333683,3.11193 -0.763687,0.57471 -2.082373,-0.22021 -2.845191,0.35565 -1.028065,0.7761 -0.437206,2.84577 -1.511509,3.55649 -0.593229,0.39246 -1.563948,-0.42557 -2.133894,0 -0.668743,0.49933 -0.698474,1.56613 -0.711298,2.40063 -0.02684,1.74664 1.618125,3.34446 1.333683,5.06799 -0.376111,2.27899 -3.503884,3.49166 -3.823227,5.7793 -0.352481,2.52502 2.208383,4.74339 2.31172,7.2908 0.107237,2.64354 -1.510791,5.10321 -1.778246,7.73537 -0.383599,3.77519 0.266737,11.38076 0.266737,11.38076 0,0 7.948499,8.58114 9.780347,13.95923 0.631332,1.85352 0.266737,5.8682 0.266737,5.8682 z"
       id="path1"
       sodipodi:nodetypes="cscssssssssssssssssssssssssssssssssssssssssssscsssscssssssssssssssssscscc" /><path
       style="opacity:1;fill:url(#linearGradient4);stroke-width:1"
       d="m 89.872554,186.60464 -3.112193,-14.86232 c 0,0 0.369584,-2.6409 -0.127029,-3.81085 -0.368558,-0.86827 -1.497054,-1.21572 -1.968939,-2.03245 -0.385536,-0.66728 -0.187879,-1.59542 -0.635143,-2.223 -0.149985,-0.21045 -0.518989,-0.21374 -0.63514,-0.4446 -0.34269,-0.68111 0.484128,-1.65056 0.06351,-2.28651 -0.351351,-0.53122 -1.341773,-0.23496 -1.778397,-0.69865 -0.610447,-0.64828 -0.207629,-1.89954 -0.825685,-2.54057 -0.641541,-0.66539 -2.068559,-0.19936 -2.604079,-0.95271 -0.772878,-1.08726 0.632487,-2.8634 -0.06352,-4.0014 -0.588054,-0.96149 -2.213385,-0.76649 -2.985164,-1.58785 -1.051043,-1.11857 -0.940089,-2.99861 -1.905426,-4.19193 -0.828231,-1.02383 -2.842434,-1.07601 -3.175709,-2.35003 -0.287789,-1.10014 1.500506,-1.97972 1.397312,-3.11219 -0.06768,-0.74274 -1.130544,-1.1093 -1.270283,-1.84191 -0.158768,-0.83238 0.78296,-1.65645 0.571627,-2.47706 -0.20565,-0.79854 -1.655107,-1.01732 -1.651368,-1.84191 0.003,-0.65937 1.348769,-0.80161 1.333796,-1.46082 -0.017,-0.74833 -1.733117,-0.85357 -1.587854,-1.58786 0.160237,-0.80999 1.957244,-0.19552 2.28651,-0.95271 0.31522,-0.72489 -1.034295,-1.46056 -0.825685,-2.223 0.417107,-1.52446 3.099618,-1.5166 3.683823,-2.98516 0.355271,-0.89307 -0.735384,-1.96468 -0.381085,-2.85814 0.432696,-1.09116 2.227099,-1.16289 2.731109,-2.223 0.336348,-0.70745 -0.214101,-1.59651 0,-2.35002 0.37416,-1.31683 1.911379,-2.14699 2.159481,-3.49328 0.183615,-0.99636 -0.638725,-1.97426 -0.571627,-2.98517 0.07538,-1.13565 1.522581,-2.19076 1.079741,-3.23922 -0.26527,-0.62805 -1.75976,-0.2124 -1.84191,-0.8892 -0.09603,-0.79115 1.788849,-0.72915 1.84191,-1.52434 0.101743,-1.52477 -2.706252,-1.893 -3.112193,-3.36625 -0.298919,-1.08485 1.136348,-2.26607 0.698656,-3.302737 -0.370114,-0.876605 -1.809022,-0.789507 -2.41354,-1.524339 -0.89422,-1.086985 -1.067709,-2.606467 -1.524338,-3.937878 -0.430247,-1.254486 -1.143257,-3.810852 -1.143257,-3.810852 0,0 -0.694194,2.598622 -0.444598,3.874365 0.245591,1.255275 2.095968,3.366251 1.84191,3.366251 -0.254055,0 0.723395,0.638351 0.825685,1.079741 0.26809,1.156829 -1.021675,2.350569 -0.698656,3.493279 0.220052,0.77845 1.767741,0.97786 1.651368,1.7784 -0.07783,0.53538 -1.251149,0.30479 -1.397312,0.82568 -0.194474,0.69306 1.246779,1.22352 1.016227,1.90543 -0.260955,0.77183 -1.755275,0.34909 -2.222997,1.01622 -0.90233,1.28702 0.885367,3.76907 -0.381085,4.70005 -0.542119,0.39852 -1.458327,-0.88276 -1.968939,-0.4446 -0.692553,0.59429 0.794218,2.04673 0.190542,2.73111 -0.504955,0.57246 -1.738042,-0.40389 -2.28651,0.12703 -1.038419,1.0052 0.730645,3.39549 -0.381085,4.31896 -0.507215,0.42132 -1.457602,-0.60685 -1.968939,-0.19054 -0.611009,0.49746 0.216924,1.71838 -0.254056,2.35003 -0.425417,0.57054 -1.761227,0.14498 -1.968939,0.82568 -0.258784,0.84807 1.71063,1.37224 1.460826,2.223 -0.234979,0.80027 -1.993779,0.23522 -2.286511,1.01622 -0.352386,0.94015 1.574798,1.77438 1.270283,2.73111 -0.207076,0.6506 -1.486227,0.39914 -1.778397,1.01623 -0.707477,1.49425 1.174972,3.27464 0.825686,4.89059 -0.248114,1.14788 -1.934859,1.74775 -1.96894,2.92165 -0.03857,1.32836 1.92993,2.10481 2.032453,3.42977 0.06157,0.7957 -1.092654,1.45129 -0.889199,2.223 0.241914,0.91759 2.025014,0.85033 2.222998,1.77839 0.163971,0.76862 -1.216149,1.32199 -1.079741,2.09597 0.265237,1.50496 2.845918,1.67535 3.366251,3.11219 0.334413,0.92345 -1.01849,2.17445 -0.381087,2.92165 0.481104,0.56397 1.715136,-0.4765 2.222997,0.0635 0.885242,0.94127 -1.13077,3.06063 -0.127029,3.87436 1.033088,0.83752 2.904947,-1.86317 3.874365,-0.95271 0.95656,0.89838 -1.586636,2.90815 -0.698656,3.87437 0.762648,0.82985 2.527154,-1.07004 3.366252,-0.31758 1.071937,0.96125 -0.909363,3.25757 0.06351,4.31897 0.704604,0.76872 2.513055,-0.53591 3.112196,0.31757 0.351081,0.50012 -0.827116,1.30189 -0.444601,1.7784 0.490553,0.61109 1.795537,-0.61723 2.350027,-0.0635 0.584442,0.58364 -0.720503,1.97648 -0.06352,2.47706 0.58068,0.44244 1.480305,-1.02746 2.095968,-0.63515 0.75751,0.48269 -0.250635,2.02905 0.381085,2.6676 0.587532,0.59388 1.942478,-0.26089 2.477053,0.38108 0.460819,0.55339 -0.627325,1.71147 -0.06351,2.15948 0.325658,0.25877 1.206768,-0.31756 1.206768,-0.31756 l 3.112196,14.60826 z"
       id="path2"
       sodipodi:nodetypes="ccssssssssssssssssssssssssssssssssscssssssssssssssssssssssssssssssssssssssssssccc" /><path
       style="opacity:1;fill:url(#linearGradient16);stroke-width:1"
       d="m 91.079324,185.33435 c 0,0 0.161368,-4.2737 -0.254058,-6.35141 -0.478062,-2.39097 -2.540566,-6.85953 -2.540566,-6.85953 0,0 0.903217,-1.38114 0.889198,-2.15948 -0.01843,-1.0231 -1.568215,-1.8157 -1.270283,-2.79463 0.492676,-1.61881 3.681492,-1.10014 4.318963,-2.66759 0.394624,-0.97033 -0.88544,-2.00846 -0.762169,-3.04868 0.129269,-1.09083 1.331699,-1.84021 1.524338,-2.92165 0.232105,-1.303 -1.237606,-2.83356 -0.508111,-3.93788 0.945718,-1.43163 3.84447,-0.0886 4.954104,-1.39732 0.495941,-0.58491 -0.216929,-1.68133 0.254058,-2.28651 0.444389,-0.57101 1.656546,-0.14393 2.032452,-0.76217 0.5539,-0.91099 -1.163782,-2.45176 -0.381084,-3.1757 0.634011,-0.58641 1.890094,1.07621 2.540564,0.50811 0.51127,-0.44653 -0.49367,-1.46119 -0.12702,-2.03246 0.63711,-0.99266 2.63495,-0.29798 3.30273,-1.27028 0.45546,-0.66317 -0.36626,-1.69723 0,-2.41354 0.42801,-0.83709 1.95239,-0.77258 2.28651,-1.65137 0.4162,-1.09469 -0.96761,-2.27678 -0.76217,-3.42976 0.12362,-0.6938 1.00511,-1.08735 1.14326,-1.7784 0.2361,-1.18098 -0.80733,-2.36481 -0.63514,-3.55679 0.17598,-1.21821 1.32886,-2.11488 1.65136,-3.30274 0.33357,-1.22863 -0.31973,-2.67439 0.25406,-3.81085 0.64998,-1.28736 2.52768,-1.57846 3.30274,-2.79462 0.7784,-1.2214 0.187,-3.10414 1.14325,-4.19194 0.72686,-0.82685 2.15583,-0.62621 3.04868,-1.27028 1.04668,-0.75504 1.34717,-2.43032 2.54057,-2.92165 1.06006,-0.43643 2.3522,0.64528 3.42976,0.25405 1.88582,-0.68468 2.41649,-3.55501 4.31897,-4.19193 0.64744,-0.21675 1.37727,0.44615 2.03245,0.25406 1.58675,-0.46521 3.81085,-3.17571 3.81085,-3.17571 0,0 -1.41524,2.73742 -1.90542,4.19193 -0.30508,0.90527 0.0404,2.11913 -0.63514,2.79463 -0.6755,0.6755 -2.11191,-0.0331 -2.79463,0.63514 -0.87339,0.8548 0.11152,2.85533 -0.8892,3.55679 -1.01088,0.70858 -2.71321,-1.14391 -3.68382,-0.38109 -0.7392,0.58095 0.35334,2.20766 -0.38108,2.79463 -0.76364,0.61032 -2.1598,-0.8666 -2.92166,-0.25406 -0.76542,0.6154 0.35694,2.27364 -0.38108,2.92165 -1.05,0.92194 -3.15811,-0.94005 -4.19194,0 -0.66087,0.60092 0.15323,1.87263 -0.25405,2.6676 -0.41047,0.80119 -1.87327,0.89237 -2.03246,1.7784 -0.20438,1.13752 1.68047,1.89331 1.65137,3.04868 -0.0287,1.13975 -1.79525,1.78166 -1.77839,2.92165 0.0149,1.00992 1.61247,1.53129 1.65136,2.54057 0.0409,1.06032 -1.34255,1.7492 -1.52434,2.79462 -0.23496,1.35113 1.32669,2.88062 0.63515,4.06491 -0.54728,0.93724 -2.5003,0.20665 -3.04868,1.14325 -0.5628,0.96123 1.23338,2.45735 0.50811,3.30274 -0.52384,0.6106 -1.78334,-0.50008 -2.41354,0 -1.02179,0.81082 0.0168,2.87238 -0.8892,3.81085 -1.46246,1.51495 -4.85606,-0.0495 -6.09736,1.65137 -0.54971,0.75324 0.69385,2.05417 0.12703,2.79462 -0.71188,0.92995 -2.766925,-0.20335 -3.429767,0.76217 -0.484664,0.70598 0.804195,1.79607 0.381085,2.54057 -0.497295,0.87504 -2.246343,0.29922 -2.794622,1.14325 -0.761538,1.17232 0.611318,2.88055 0.127027,4.19194 -0.218066,0.59049 -1.043298,0.81019 -1.270283,1.39731 -0.351179,0.90836 0.503344,2.08793 0,2.92165 -0.469881,0.7783 -2.092277,0.4198 -2.413537,1.27029 -0.336241,0.89015 1.240982,1.74298 1.016224,2.66759 -0.254992,1.04899 -2.413537,2.15948 -2.413537,2.15948 0,0 1.445985,4.3452 1.651368,6.60548 0.180459,1.98598 -0.381085,5.97033 -0.381085,5.97033 z"
       id="path14"
       sodipodi:nodetypes="cscssssssssssssssssssssssssssscsssssssssssssssssssssssssssssscscc" /><path
       style="opacity:1;fill:url(#linearGradient18);stroke-width:1"
       d="m 91.017905,186.34519 c 0,0 1.870317,-3.99877 2.015513,-6.1517 0.195618,-2.9006 -1.578022,-8.57764 -1.578022,-8.57764 0,0 1.858959,-2.39475 1.669192,-3.74966 -0.166325,-1.18754 -2.094721,-1.57836 -2.309586,-2.75808 -0.206394,-1.13321 1.247506,-2.11439 1.141987,-3.26139 -0.07319,-0.79556 -1.09331,-1.28676 -1.191499,-2.07962 -0.133796,-1.08038 0.868319,-2.05566 0.883255,-3.14418 0.02482,-1.80872 -1.670364,-3.48738 -1.323728,-5.26273 0.391587,-2.00558 2.909659,-3.03072 3.621877,-4.94604 0.3545,-0.95333 -0.278494,-2.16876 0.243713,-3.04157 0.530736,-0.88708 2.187969,-0.73473 2.606822,-1.67979 0.683051,-1.54116 -1.4114,-3.40865 -0.825716,-4.98939 0.833232,-2.24886 4.373877,-2.51042 5.516167,-4.61917 0.74866,-1.38208 -0.32896,-3.38629 0.56084,-4.68201 0.52625,-0.76631 2.18603,-0.41716 2.46529,-1.30383 0.23351,-0.74141 -1.34808,-1.35099 -1.06456,-2.07475 0.3671,-0.93714 2.31289,-0.17575 2.83636,-1.03538 0.53584,-0.87993 -0.76201,-2.10479 -0.39096,-3.0659 0.26979,-0.69885 1.41879,-0.76916 1.70854,-1.45997 0.60952,-1.45316 -1.24862,-3.43734 -0.32771,-4.71606 0.77504,-1.07619 2.91227,-0.0605 3.85184,-0.99644 0.82971,-0.82654 -0.074,-2.7374 0.89299,-3.39806 0.45585,-0.31144 1.18423,0.49386 1.64529,0.19019 1.13213,-0.74566 0.16102,-2.98657 1.16632,-3.89606 0.96728,-0.87514 2.87275,0.13023 3.84212,-0.74258 1.23645,-1.11331 0.0986,-3.81029 1.45424,-4.77488 0.79352,-0.564615 2.01256,0.46671 2.91952,0.11191 0.75336,-0.294717 0.91498,-1.809472 1.71827,-1.713834 0.60638,0.0722 0.36026,1.432857 0.95709,1.562144 1.53954,0.33352 2.39438,-3.057476 3.9151,-2.646597 0.78629,0.212445 0.30638,1.892026 1.0597,2.201687 0.63271,0.260083 1.25539,-0.780837 1.93322,-0.688624 0.84955,0.115576 1.2646,1.306164 2.10437,1.478994 0.513,0.10563 1.03547,-0.470567 1.53782,-0.32241 0.66114,0.19499 0.78173,1.41203 1.4697,1.45468 1.65037,0.1023 2.2922,-2.797634 3.9297,-3.027407 0.75593,-0.106074 1.3807,0.996625 2.1287,0.844326 0.90998,-0.185278 1.08954,-1.700818 1.98188,-1.957974 0.90979,-0.262187 1.86168,0.871219 2.77312,0.614786 1.47019,-0.413643 1.81111,-2.837868 3.29987,-3.178671 0.90147,-0.206361 1.74397,1.106062 2.63645,0.86379 1.74236,-0.472976 3.58781,-4.057483 3.58781,-4.057483 0,0 -2.57545,1.458432 -3.99823,1.499318 -1.13964,0.03275 -2.15435,-1.267072 -3.26626,-1.015054 -0.52561,0.119129 -0.69187,0.88394 -1.18621,1.098623 -0.70339,0.305477 -1.7016,-0.319992 -2.29456,0.166289 -0.57179,0.468921 0.034,1.742337 -0.59046,2.138434 -0.54109,0.343219 -1.26043,-0.420603 -1.8943,-0.326855 -0.95609,0.141403 -1.642,1.122394 -2.59222,1.29897 -0.70893,0.131739 -1.45875,-0.404391 -2.15303,-0.209651 -0.84048,0.23575 -1.23546,1.415722 -2.09422,1.572305 -1.71751,0.313165 -3.49066,-0.637995 -5.02874,-1.46398 -1.08951,-0.585091 -1.64762,-2.040705 -2.83194,-2.396744 -0.77999,-0.234489 -1.67874,0.611549 -2.42635,0.288357 -0.49773,-0.215172 -0.44204,-1.171749 -0.96683,-1.308277 -1.46609,-0.381419 -2.62869,1.767758 -4.13978,1.875257 -0.69657,0.04956 -1.32064,-0.68755 -2.01149,-0.585589 -0.87166,0.128644 -1.34694,1.297109 -2.21629,1.440503 -1.19634,0.19733 -2.40657,-1.366182 -3.52499,-0.89785 -0.66397,0.278031 -0.45748,1.518668 -1.08846,1.865101 -0.81656,0.448327 -2.04542,-0.6634 -2.79258,-0.107046 -0.79936,0.595227 -0.0582,2.174438 -0.74659,2.895174 -0.61967,0.648858 -1.91082,0.185564 -2.57276,0.791238 -0.73129,0.66913 -0.49561,1.98586 -1.12252,2.75365 -0.95887,1.17435 -3.04273,1.20163 -3.7833,2.52453 -0.4964,0.88674 0.43906,2.1957 -0.11678,3.04645 -0.78744,1.20521 -3.136453,0.65578 -3.885902,1.88498 -1.766848,2.89788 1.784802,7.15429 0.245417,10.17914 -0.768194,1.50949 -3.597107,1.30001 -4.178701,2.89074 -0.243732,0.66664 0.859439,1.41324 0.556825,2.05529 -0.322933,0.68516 -1.625654,0.32413 -2.06989,0.93763 -1.070436,1.47831 0.435861,3.93405 -0.59003,5.44362 -0.714399,1.0512 -2.772054,0.65773 -3.373298,1.77751 -0.869652,1.61968 1.179621,3.75934 0.552385,5.4874 -0.378113,1.04173 -2.202989,1.22976 -2.377282,2.32419 -0.214759,1.34852 2.007441,2.27118 1.894723,3.63203 -0.09793,1.18231 -1.891843,1.68217 -2.142875,2.84167 -0.66718,3.08164 2.282553,6.08649 2.061437,9.23177 -0.112678,1.60284 -1.716293,2.90458 -1.698389,4.51128 0.01964,1.76258 2.138174,3.1513 1.973,4.90624 -0.07826,0.83147 -1.328399,1.27446 -1.352068,2.10925 -0.03664,1.29215 1.904455,3.37816 1.904455,3.37816 0,0 1.676972,5.59759 1.455954,8.44584 -0.150301,1.93687 -1.864251,5.52189 -1.864251,5.52189 z"
       id="path16"
       sodipodi:nodetypes="cscssssssssssssssssssssssssssssssssssssssscssssssssssssssssssssssssssssssssssssssscscc" /><path
       style="opacity:1;fill:url(#linearGradient20);stroke-width:1"
       d="m 93.873949,188.89115 c -0.428531,-5.31529 0.09518,-10.39253 1.016224,-15.37043 0,0 1.510717,-1.41146 1.841913,-2.35002 0.514344,-1.45757 -0.63141,-3.25591 0.06351,-4.63654 0.455003,-0.90398 1.896878,-0.9717 2.413537,-1.84191 0.852977,-1.43666 -0.253624,-3.62756 0.762172,-4.9541 0.731875,-0.95576 2.481415,-0.58074 3.302735,-1.46083 0.89102,-0.95477 0.39175,-2.77936 1.3338,-3.68382 0.96117,-0.92281 2.88073,-0.25267 3.81085,-1.20677 1.38448,-1.42016 0.21603,-4.34754 1.65137,-5.71628 0.6615,-0.63081 1.86771,-0.1928 2.6676,-0.63514 1.48043,-0.81868 1.92859,-3.54994 3.6203,-3.55679 0.88338,-0.004 1.07977,2.156 1.90543,1.84191 1.05174,-0.4001 -0.51471,-2.54452 0.25406,-3.36625 0.71593,-0.76525 2.11524,-0.12174 3.11219,-0.4446 0.86492,-0.2801 1.51362,-1.39943 2.41354,-1.27029 0.93369,0.13398 1.15816,1.6149 2.03245,1.96894 1.31477,0.53241 2.94668,-0.547 4.25545,0 2.16862,0.90637 2.84916,3.97187 4.95411,5.01762 1.16649,0.57952 2.66133,0.98256 3.87436,0.50812 0.46198,-0.18069 0.49766,-0.94576 0.95271,-1.14326 0.68085,-0.2955 1.54215,0.42253 2.223,0.12703 0.45505,-0.1975 0.49766,-0.94576 0.95271,-1.14326 0.68085,-0.2955 1.50581,0.31813 2.223,0.12703 0.56175,-0.14968 1.46083,-0.95271 1.46083,-0.95271 0,0 -0.5421,1.94651 -1.3338,2.41354 -0.65646,0.38725 -1.62622,-0.38069 -2.28651,0 -0.40267,0.23216 -0.28201,1.00073 -0.69866,1.20677 -0.74619,0.369 -1.68924,-0.58649 -2.47705,-0.31757 -0.68005,0.23213 -0.81575,1.40491 -1.52434,1.52434 -0.76565,0.12904 -1.32051,-0.97714 -2.09597,-1.01623 -0.92312,-0.0465 -1.74069,1.28268 -2.60408,0.95271 -0.67239,-0.25698 -0.36154,-1.60621 -1.01623,-1.90542 -0.43443,-0.19854 -0.96925,0.52949 -1.39731,0.31757 -1.1887,-0.58847 -0.38992,-3.21039 -1.65137,-3.62031 -0.53196,-0.17287 -0.9016,0.81396 -1.46082,0.82569 -1.06971,0.0224 -1.92573,-1.98561 -2.85814,-1.46083 -0.75847,0.42688 0.51071,2.08856 -0.19054,2.60408 -0.82339,0.60531 -2.14045,-1.27383 -2.98517,-0.69866 -0.72514,0.49375 0.34127,2.10628 -0.38108,2.60409 -0.80361,0.55381 -2.08106,-1.22561 -2.85814,-0.63515 -0.96219,0.73111 0.81822,2.95494 -0.19055,3.62031 -0.92257,0.60851 -2.19881,-1.76547 -3.11219,-1.14325 -0.77007,0.5246 0.62974,2.17202 -0.0635,2.79462 -0.93266,0.83763 -2.77994,-1.11483 -3.74734,-0.31757 -1.21606,1.00219 0.73027,3.72557 -0.50811,4.70005 -0.77183,0.60735 -2.08585,-0.89685 -2.92166,-0.38109 -1.25927,0.77707 -0.26254,3.32377 -1.46082,4.19194 -0.92596,0.67088 -2.51922,-0.62815 -3.42977,0.0635 -1.17882,0.89542 -0.21738,3.21488 -1.27028,4.25545 -0.76739,0.7584 -2.43525,0.0491 -3.112197,0.8892 -1.038255,1.28851 0.364277,3.44636 -0.317572,4.95411 -0.592187,1.30948 -3.04868,3.04868 -3.04868,3.04868 -1.374845,5.52509 -0.955344,10.153 -1.079741,15.05286 z"
       id="path18"
       sodipodi:nodetypes="ccsssssssssssssssssssssscsssssssssssssssssssssssssssccc" /></g></svg>
